<?xml version="1.0" encoding="UTF-8" standalone="no"?>
<!-- Created with Inkscape (http://www.inkscape.org/) -->

<svg
   width="200mm"
   height="200mm"
   viewBox="0 0 200 200"
   version="1.1"
   id="svg1"
   xml:space="preserve"
   inkscape:version="1.3.2 (091e20e, 2023-11-25, custom)"
   sodipodi:docname="leia_uitwerking.svg"
   inkscape:export-filename="leia_uitwerking1_zondertekst.png"
   inkscape:export-xdpi="96"
   inkscape:export-ydpi="96"
   xmlns:inkscape="http://www.inkscape.org/namespaces/inkscape"
   xmlns:sodipodi="http://sodipodi.sourceforge.net/DTD/sodipodi-0.dtd"
   xmlns="http://www.w3.org/2000/svg"
   xmlns:svg="http://www.w3.org/2000/svg"><sodipodi:namedview
     id="namedview1"
     pagecolor="#000000"
     bordercolor="#000000"
     borderopacity="0.25"
     inkscape:showpageshadow="2"
     inkscape:pageopacity="0.0"
     inkscape:pagecheckerboard="0"
     inkscape:deskcolor="#d1d1d1"
     inkscape:document-units="mm"
     inkscape:zoom="0.76702441"
     inkscape:cx="396.3368"
     inkscape:cy="561.25984"
     inkscape:window-width="1920"
     inkscape:window-height="1057"
     inkscape:window-x="-8"
     inkscape:window-y="-8"
     inkscape:window-maximized="1"
     inkscape:current-layer="g1"
     inkscape:export-bgcolor="#ffffff00" /><defs
     id="defs1"><rect
       x="190.34596"
       y="788.76239"
       width="448.48639"
       height="181.21979"
       id="rect1" /></defs><g
     inkscape:label="Laag 1"
     inkscape:groupmode="layer"
     id="layer1"><g
       style="display:block"
       id="g1"
       transform="matrix(0.26458333,0,0,0.26458333,2.510545,55.102085)"><path
         d="m 354.87382,-125.36937 h 33 l 11,2 19,8 11,7 11,9.000002 11,11 9,14 2,3 7,-1 4,-1 h 27 l 17,4 12,5 12,8 11,9 11,13 8,14 4,13.9999996 1,6.00000005 V 22.630632 l -2,8 -4,13 4,1 10,5 14,12 8,10 6,10 5,14 3,9.999998 v 21 l -2,13 -7,15 -6,11 -12,13 -11,8 -13,6 h -2 l 1,4 v 21 l -5,17 -8,16 -9,10 -9,8 -16,8 -17,6 -6,1 h -21 l -17,-4 -2,6 -12,16 -10,10 -10,7 -16,8 -9,4 -14,3 h -25 l -17,-3 -17,-7 -14,-8 -12,-11 -8,-9 -6,-9 -3,-7 -10,2 -4,1 h -28 l -24,-8 -16,-10 -5,-5 -8,-9 -8,-16 -5,-16 -1,-4 v -20 l -14,-7 -10,-8 -5,-4 -9,-11 -6,-10 -3,-5 -5,-18 -1,-6 v -20 l 6,-20.999998 6,-11 8,-10 10,-10 10,-7 12,-5 h 3 l -4,-10 -2,-11 V -2.3693684 l 5,-17.9999996 8,-14 8,-10 10,-10 13,-9 8,-4 18,-6 h 27 l 10,2 5,1 7,-12 8,-10 12,-12.000002 13,-9 16,-8 z"
         style="fill:#311d30"
         id="path2" /><path
         d="m 256.87382,-72.369368 9,1 15,3 v 8 l -4,2 -25,-1 h -2 l -17,5 -9,3 v 2 l -4,2 h -4 v 3 l -8,6 -10,13 -2,1 -4,10 -4,13.99999965 -1,6.99999995 V 16.630632 l 1,-15.0000004 h 1 l 1,24.0000004 5,13 3,8 -1,4 -12,3 -16,9 -13,12 -7,10 -6,13 -2,15.999998 v 16 l 4,13 10,17 6,7 12,9 19,9 6,2 -3,9 -1,4 v 12 l 5,19 8,13 6,7 15,10 17,5 4,1 h 14 l 17,-4 5,-2 -2,-5 -5,-1 -10,2 h -23 l -11,-4 -10,-6 -6,-5 -7,-9 -7,-15 -1,-3 v -11 l 3,-9 3,-4 35,-1 2,-5 v -4 l -4,-1 -33,-1 -14,-3 -9,-4 -8,-4 -11,-8 -10,-13 -4,-8 -3,-11 v -20 l 4,-12.999998 5,-5 2,4 h 4 v 2 l 2,1 -5,2 3,2.999998 -3,2 1,2 -1,2 4,1 v -2 h 2 v 3 l 6,-2 1,-4 h 4 l 1,-3 h 2 v 3 l -3,2 -1,4 -5,10 1,7 6,9 5,3 h 10 l 8,-4 5,-8 v -11 l -2,-5 3,1 3,6 1,1 h 4 l 2,3 4,-1 v 2 l 3,-2 2,-4 h 2 l 3,12 2,11 4,12 5,12 10,17 12,16 11,12 11,8 7,6 v 5 l -2,3 v 25 l 2,6 11,21 11,12 9,8 12,7 19,6 4,1 h 24 l 17,-5 16,-8 10,-9 10,-10 11,-17 3,-8 5,2 -2,1 -1,4 -1,4 4,-1 2,1 v 3 h -2 l 1,3 -2,3 3,-1 2,-3 8,3 12,2 h 14 l 15,-3 6,-1 1,-2 11,-4 h 2 l 1,-2 5,-3 1,-2 7,-4 4,-4 3,-5 h 2 l 2,-5 5,-10 3,-10 1,-4 h 2 l -1,7 -6,15 -7,11 -11,11 -13,8 -18,7 -12,3 h -21 l -17,-4 -2,6 -12,16 -10,10 -10,7 -16,8 -9,4 -14,3 h -25 l -17,-3 -17,-7 -14,-8 -12,-11 -8,-9 -6,-9 -3,-7 -10,2 -4,1 h -28 l -24,-8 -16,-10 -5,-5 -8,-9 -8,-16 -5,-16 -1,-4 v -20 l -14,-7 -10,-8 -5,-4 -9,-11 -6,-10 -3,-5 -5,-18 -1,-6 v -20 l 6,-20.999998 6,-11 8,-10 10,-10 10,-7 12,-5 h 3 l -4,-10 -2,-11 V -2.3693684 l 5,-17.9999996 8,-14 8,-10 7,-7 5,-2 11,-8 12,-5 12,-4 z m -83,177.999998 z"
         style="fill:#25d7f0"
         id="path3" /><path
         d="m 478.87382,-46.369368 h 25 l 17,8 9,7 8,8 7,11 4,9.9999996 V 16.630632 l -5,16 -4,7 h -16 v 2 h -2 l 1,10 1,2 28,7 15,8 11,9 7,10 6,12 2,6.999998 v 17 l -6,19 -6,11 -6,7 -10,7 -10,5 -9,3 -20,3 -28,1 1,9 1,1 36,1 3,7 v 18 l -5,15 -6,9 -8,8 -14,7 -6,2 h -28 l -17,-5 -1,-24 -2,-6 8,-7 8,-7 9,-8 10,-13 9,-14 9,-17 6,-19 4,-25 V 90.630632 l -3,-20 -8,-23 -9,-17 -10,-14 -9,-10.0000004 -12,-12 -5,-4 -3,-3.9999996 1,-7 v -17 l 12,-6 z"
         style="fill:#fa9641"
         id="path4" /><path
         d="m 241.87382,-73.369368 h 27 l 10,2 7,3 5,1 v 2 l 8,1 -1,5 -6,14 v 23 l 1,8 -9,7.9999996 -11,9 -11,11.0000004 -12,18 -8,16 -7,20 -3,9 -2,16 -1,28.999998 h -3 l -4,2 -1,-2 -4,1 v -4 l -5,1 -4,-8 1,4 v 11 l -6,9 -8,4 h -10 l -6,-4 -6,-9 -1,-7 5,-10 1,-5 4,-1 v -3 l -3,3 h -4 l -1,5 -1,1 h -5 v -3 l -3,3 -3,-2 -1,-5 3,-2 -3,-2.999998 5,-1 -2,-2 -4,-1 -2,-3 -4,6 -3,10.999998 v 20 l 3,11 5,9 9,12 15,10 10,4 5,2 11,2 33,1 5,2 -1,7 -2,3 -35,1 -4,7 -1,5 v 11 l 5,12 5,9 6,7 10,7 11,5 4,1 h 23 l 10,-2 5,1 3,4 -1,3 -12,4 -10,2 h -14 l -15,-4 -9,-4 -13,-9 -8,-10 -6,-10 -5,-19 v -12 l 4,-11 1,-2 -9,-2 -19,-10 -12,-10 -7,-10 -7,-12 -4,-13 v -16 l 2,-15.999998 8,-16 8,-10 12,-11 15,-8 12,-3 -2,-9 -5,-11 -2,-8 h -1 l -1,-5 V 6.6306316 l 3,-14 3,-8.9999996 4,-9 5,-5 7,-9 5,-2 1,-3 h 2 v -3 l 8,-2 v -2 l 13,-5 13,-4 h 3 l 26,1 1,-5 1,-4 -15,-2 -9,-1 -17,2 -15,5 -9,4 -12,9 -3,-1 10,-8 10,-6 z m -67,178.999998 2,1 z"
         style="fill:#40f6e4"
         id="path5" /><path
         d="m 354.87382,-125.36937 h 33 l 11,2 19,8 11,7 11,9.000002 11,11 9,14 2,3 7,-1 4,-1 h 27 l 17,4 12,5 12,8 11,9 11,13 8,14 4,13.9999996 1,6.00000005 V 22.630632 l -2,8 -4,13 4,1 10,5 14,12 8,10 6,10 5,14 3,9.999998 v 21 l -2,13 -7,15 -6,11 -12,13 -11,8 -13,6 h -2 l 1,4 v 21 l -1,4 h -3 l -1,9 -5,11 -5,9 -3,2 -3,5 -7,6 h -3 l -1,3 -8,5 -11,4 -7,3 -16,3 h -13 l -15,-3 -5,-2 -2,3 h -3 l 1,-6 h 2 v -3 h -6 l 1,-5 1,-3 6,1 9,2 9,1 h 16 l 16,-4 14,-7 10,-8 7,-10 5,-10 2,-14 v -19 l -2,-8 11,-5 7,-3 11,-7 10,-9 7,-10 4,-7 5,-16 v -16 l -1,-13 -4,-11.999998 -6,-10 -9,-10 -9,-8 -14,-8 -11,-3 1,-4 6,-13 4,-12 V -1.3693684 l -5,-15.9999996 -7,-11 -7,-8 -12,-9 -12,-6 -15,-5 h -24 l -17,5 -5,3 h -2 l -5,-12 -8,-15 -10,-12 -14,-10 -6,-4.000002 -22,-7 -6,-1 h -20 l -17,5 -14,7.000002 -12,9 -9,9 -9,14 -2,2 -6,-1 -2,-1 v -2 l -7,-1 2,-6 8,-12 9,-10 8,-8.000002 13,-9 16,-8 z"
         style="fill:#f2a374"
         id="path6" /><path
         d="m 419.87382,-94.369368 5,2 7,6 11,14 9,18 1,6 7,-4 17,-5 h 24 l 17,6 10,5 9,7 9,8 7,11 4,8 3,10.9999996 V 20.630632 l -6,17 -6,12 8,1 14,7 11,9 9,9 8,13 4,11.999998 1,13 v 16 l -5,16 -8,13 -9,10 -11,8 -8,5 -13,5 h -2 l 3,8 v 19 l -2,14 -8,15 -7,8 -13,9 -11,5 -14,3 h -16 l -14,-2 -10,-4 -3,-2 -1,5 -4,8 -9,13 -17,17 -12,7 -16,6 -8,2 h -24 l -18,-5 -14,-7 -10,-8 -11,-11 -7,-11 -8,-15 -1,-5 v -25 l 3,-7 9,4 -4,1 3,22 6,17 8,13 6,7 14,9 14,7 9,2 h 23 l 16,-4 11,-6 9,-6 7,-6 7,-10 8,-14 6,-21 3,-14 -2,-1 4,-2 3,6 v 24 l 8,1 9,3 h 28 l 15,-6 8,-6 8,-9 5,-12 2,-7 v -18 l -2,-6 -36,-1 -2,-2 v -9 l 2,-1 26,-1 20,-3 13,-5 11,-6 5,-4 8,-11 5,-11 4,-14 v -17 l -4,-10.999998 -7,-13 -6,-7 -11,-8 -15,-7 -25,-6 -2,-3 v -10 h 2 v -2 h 16 l 2,-5 4,-10 2,-8 V -2.3693684 l -4,-9.9999996 -7,-11 -10,-10 -14,-8 -9,-4 h -25 l -15,5 -5,3 h -2 l 1,4 v 13 l -2,7 -4,-1 -4,-4 -3,-17 -4,-15 -3,-5 -4,-10 -7,-9 -9,-9 -3,-2 1,-5 z"
         style="fill:#341c32"
         id="path7" /><path
         d="m 512.87382,70.630632 2,3 2,10 4,-1 2,6 4,-2 3,3 -2,5 h 6 l 3,2 h 4 v 3 l 6,-1 -5,3.999998 -5,4 -4,9 v 9 l 5,9 2,4 9,3 h 9 l 8,-4 4,-5 3,-6 v -11 l -3,-6 1,-2 4,5 2,13 4,1 -1,5 h 2 v 2 h -2 v 2 l 2,1 v 3 1 l 4,1 3,-11 1,-3 -2,-1 3,-3 -2,-18 -3,-7.999998 -5,-10 -2,-1 -2,-4 -2,-1 -1,-3 -6,-5 v -2 l 4,2 8,7 8,14 3,6 2,6.999998 v 17 l -6,19 -6,11 -6,7 -10,7 -10,5 -9,3 -20,3 -28,1 1,9 1,1 36,1 3,7 v 18 l -5,15 -6,9 -8,8 -14,7 -6,2 h -28 l -17,-5 -1,-24 -2,-6 8,-7 8,-7 9,-8 10,-13 9,-14 9,-17 6,-19 4,-25 V 90.630632 Z m 65,69.999998 1,3 1,-3 z m 4,-47.999998 2,1 -2,3 z"
         style="fill:#de8fdf"
         id="path8" /><path
         d="m 361.87382,-100.36937 h 22 l 14,4.000002 10,5 12,9 11,11 7,12 3,7 4,13 4,19 v 2 l -9,-3 -18,-8 -25,-7 -7,-1 h -35 l -20,4 -17,6 -14,8 h -4 v -14 l 3,-13 8,-18 9,-12 7,-7 13,-9 14,-6 z"
         style="fill:#f5c026"
         id="path9" /><path
         d="m 445.87382,224.63063 h 4 v 7 l -6,20 -3,10 -10,17 -9,10 -10,7 -10,6 -9,3 -10,2 h -23 l -12,-3 -18,-10 -10,-8 -8,-11 -5,-9 -5,-15 -2,-12 v -10 l 6,1 14,7 14,5 21,3 h 39 l 21,-4 19,-8 11,-7 z"
         style="fill:#4188f5"
         id="path10" /><path
         d="m 245.87382,-57.369368 h 27 l 7,3 -1,9 -9,-1 h -19 l -13,3 -15,8 -14,14 -8,14.9999996 -2,9 V 16.630632 l 4,14 5,10 1,1 h 16 v 8 l -2,5 -13,3 -15,3 -16,7 -11,8 -10,13 -5,11 -2,7.999998 v 20 l 3,11 5,9 9,12 15,10 10,4 5,2 11,2 33,1 5,2 -1,7 -2,3 -35,1 -4,7 -1,5 v 11 l 5,12 5,9 6,7 10,7 11,5 4,1 h 23 l 10,-2 5,1 3,4 -1,3 -12,4 -10,2 h -14 l -15,-4 -9,-4 -13,-9 -8,-10 -6,-10 -5,-19 v -12 l 4,-11 1,-2 -9,-2 -19,-10 -12,-10 -7,-10 -7,-12 -4,-13 v -16 l 2,-15.999998 8,-16 8,-10 12,-11 15,-8 12,-3 -2,-9 -5,-11 -1,-4 V -3.3693684 l 6,-14.9999996 9,-13 10,-10 10,-7 10,-5 z"
         style="fill:#2a1f37"
         id="path11" /><path
         d="m 299.87382,228.63063 6,1 14,7 14,5 31,4 16,1 -2,5 -1,1 -10,1 -8,7 -4,5 v 10 l 5,8 5,4 2,1 h 9 l 6,-2 v 4 l 3,1 2,7 -2,4 1,2 -6,1 h -18 l -12,-1 -16,-8 -13,-9 -7,-8 -8,-14 -5,-15 -2,-12 z"
         style="fill:#1ba6f6"
         id="path14" /><path
         d="m 361.87382,-98.369368 h 2 v 3 h 2 l 1,3 h -2 v 2 l 2,-1 1,-5 h 6 l 4,1 v -2 l 4,1 1,-1 h 5 v 2 l 4,1 v 2 l -8,-1 v 2 h 3 v 2 h -2 v 2 l 4,-2 2,1 1,-3 2,2 h -2 v 3 l -4,-1 v 2 h 2 l -1,2 -2,-1 1,3 2,1 v 4 h -2 l -6,-7 -3,-2 h -8 l -7,3 -6,5 -2,4 v 9 l 5,8 7,4 10,1 -2,2 h -4 l -1,4 -3,6 -29,5 -21,7 -14,8 h -4 v -14 l 3,-13 8,-18 9,-12 7,-7 13,-9 10,-4 6,-1 2,3 1,-2 1,3 z"
         style="fill:#f5ed7f"
         id="path15" /><path
         d="m 314.87382,42.630632 51,2 v 51 l -61,1 v -22 l 4,-17 z"
         style="fill:#2aece8"
         id="path16" /><path
         d="m 425.87382,42.630632 5,1 5,16 3,15 v 22 h -59 v -52 l 40,-1 z"
         style="fill:#f4a94e"
         id="path17" /><path
         d="m 304.87382,110.63063 h 62 v 49 l -51,1 -2,-2 -7,-24 -2,-10 z"
         style="fill:#1bd7f1"
         id="path18" /><path
         d="m 263.87382,31.630632 10,1 14,4 14,3 -2,12 -4,12 -2,10 -2,23 h -48 v -12 l 4,-16 5,-15 8,-16 z"
         style="fill:#33eae3"
         id="path19" /><path
         d="m 475.87382,30.630632 4,1 10,18 7,18 3,14 1,16 h -25 l -23,-1 -1,-17 -3,-21 -5,-16 1,-3 11,-3 9,-3 z"
         style="fill:#f7932f"
         id="path20" /><path
         d="m 379.87382,111.63063 h 59 v 17 l -3,15 -5,17 -1,1 -50,-1 z"
         style="fill:#cc99d3"
         id="path21" /><path
         d="m 244.87382,110.63063 h 47 l 2,20 1,1 2,11 4,13 v 6 l -8,3 -19,4 -3,1 h -7 l -9,-14 -5,-14 -4,-13 z"
         style="fill:#1cd6e8"
         id="path23" /><path
         d="m 452.87382,111.63063 h 47 v 8 l -3,17 -7,20 -8,14 -5,1 -25,-8 -8,-2 2,-9 4,-15 2,-21 z"
         style="fill:#db8fde"
         id="path24" /><path
         d="m 361.87382,-100.36937 h 22 l 14,4.000002 10,5 6,4 -4,2 2,3 -4,6 -4,1 v 2 h -3 l 1,4 -3,4 -1,5 -2,-1 v -5 l 1,-2 -4,2 2,3 -1,7 1,1 v 3 l 2,-1 1,8 -4,1 v 2 h 2 v 2 l -4,1 h -24 l 2,-6 2,-4 4,-1 -10,-2 -6,-4 -5,-8 v -9 l 4,-6 8,-6 4,-1 h 8 l 9,8 v 2 h 2 v -4 l -3,-1 v -3 l 1,-1 v -2 l 4,1 1,-4 -4,2 -4,1 v -2 h 2 v -2 h -3 v -2 h 6 l 2,1 -1,-2 -3,-1 v -2 h -5 l -1,2 -4,-2 v 2 l 2,1 -11,-1 -2,5 h -2 l 1,-5 -3,1 1,-4 h -2 v 5 h -2 l -1,-1 -1,2 -3,-4 -4,-1 z"
         style="fill:#f5d542"
         id="path25" /><path
         d="m 496.87382,208.63063 h 12 l 5,4 3,6 v 6 l -4,8 -7,5 -4,2 h 3 l 2,3 v 4 h 2 l 1,2 4,1 1,-4 5,1 -5,4 -15,6 h -28 l -17,-5 -1,-24 -2,-6 5,-3 6,-4 2,1 1,3 4,-1 1,4 v 12 l -1,5 h 2 l 1,-3 3,-3 1,4 -1,6 h 2 v 3 h 4 l 1,-3 4,-1 -2,-2 -1,-6 2,-7 h 2 l 1,-9 z m -32,10 z m 20,16 z m 22,7 z"
         style="fill:#a382f2"
         id="path26" /><path
         d="m 478.87382,-46.369368 h 25 l 17,8 9,7 8,8 7,11 2,3.9999996 v 8.00000005 l -1,-3.00000005 -7,2 -1,-1 -1,2.00000005 h -2 l 1,-5.00000005 -3,-4 v -1.9999996 l -3,1 -1,9.99999965 h -1 l -2,-15.99999965 -5,-3 -6,-3 h -8 l -4,2 h -3 v -2 l -7,2 v -2 l -8,2 h -3 v 3 l -3,1 -2,-1 v -2 l -5,1 -1,-6 -5,-2 -6,-2 v 10 l -2,2 -1,-21 12,-6 z m 0,27 z"
         style="fill:#f8b428"
         id="path27" /><path
         d="m 445.87382,224.63063 h 4 v 7 l -6,20 -3,10 -10,17 -9,10 -10,7 -3,1 1,-8 4,-2 -6,1 -2,-1 -1,-3 -3,-1 v -4 l -2,-1 6,-4 v -3 l 4,-2 1,-2 h 6 v -9 l 1,-2 v -4 h 2 v -2 l -3,-1 v -2 h -2 v -3 l -5,2 v -3 l 22,-9 10,-6 z"
         style="fill:#6c81f5"
         id="path29" /><path
         d="m 303.87382,175.63063 h 5 l 8,16 7,10 6,8 9,10 5,5 v 2 h 2 v 2 l -10,-1 -16,-6 -22,-13 -12,-11 -11,-11 -3,-5 26,-4 z"
         style="fill:#11c4eb"
         id="path30" /><path
         d="m 392.87382,172.63063 h 27 l 5,1 -2,6 -10,17 -13,14 -14,11 -2,2 h -4 l -1,-50 z"
         style="fill:#8187f0"
         id="path31" /><path
         d="m 544.87382,99.630632 h 14 l 6,2.999998 7,8 2,4 v 11 l -5,9 -6,5 -5,2 h -9 l -9,-4 -6,-9 -2,-4 v -9 l 4,-9 7,-6 z"
         style="fill:#331b2d"
         id="path32" /><path
         d="m 321.87382,173.63063 h 44 v 51 l -5,-2 -11,-9 -10,-10 -10,-14 -8,-14 z"
         style="fill:#0fbcf5"
         id="path33" /><path
         d="m 437.87382,173.63063 9,2 14,4 9,3 -1,5 -16,16 -11,8 -18,10 -5,3 -14,4 h -4 l 2,-4 17,-17 9,-13 6,-10 z"
         style="fill:#a988ee"
         id="path34" /><path
         d="m 140.87382,280.63063 h 10 l 8,4 6,8 1,4 v 9 l -5,10 -8,5 -3,1 h -7 l -8,-3 -5,-5 -3,-4 -1,-4 v -10 l 4,-8 8,-6 z"
         style="fill:#26f3f6"
         id="path35" /><path
         d="m 378.87382,-18.369368 5,2 11,7.9999996 13,13 9,13.0000004 6,10 v 2 h -43 z"
         style="fill:#f5c33d"
         id="path36" /><path
         d="m 362.87382,-17.369368 h 3 v 47 h -43 l 2,-6 7,-11 9,-11.0000004 7,-7 11,-8.9999996 z"
         style="fill:#42f2e2"
         id="path37" /><path
         d="m 338.87382,-20.369368 h 5 l -2,4 -5,5 -10,10.99999965 -11,16.00000035 -7,13 -6,-2 -4,-2 -11,-2 -9,-4 1,-4 8,-8.0000004 12,-9 13,-7.9999996 16,-7 z"
         style="fill:#47f5e3"
         id="path38" /><path
         d="m 321.87382,-76.369368 2,3 -1,2 h 2 v -2 l 3,1 -3,4 h -3 v 4 h 2 l -2,5 2,1 v 3 l 5,-1 3,2 v 8 l 2,6 3,1 -1,2 h 3 l 2,-2 1,4 -24,8 -14,8 h -4 v -14 l 3,-13 8,-18 7,-10 z"
         style="fill:#e0f4af"
         id="path39" /><path
         d="m 399.87382,-21.369368 9,2 21,8 15,8.9999996 13,10 7,6.0000004 v 3 l -10,6 -12,4 -3,2 h -3 l -5,-12 -7,-11.0000004 -12,-14 -8,-7.9999996 z"
         style="fill:#f6bb38"
         id="path40" /><path
         d="m 183.87382,103.63063 h 11 l 8,4 5,6 1,2 v 11 l -6,9 -8,4 h -10 l -6,-4 -6,-9 -1,-7 5,-10 z"
         style="fill:#231b2e"
         id="path41" /><path
         d="m 365.87382,253.63063 h 11 l 9,6 3,5 v 11 l -3,6 -5,5 -4,3 h -9 l -6,-4 -5,-6 -2,-4 v -10 l 9,-10 z"
         style="fill:#1f1730"
         id="path42" /><path
         d="m 370.87382,-86.369368 h 8 l 9,8 2,5 v 9 l -6,9 -7,4 h -9 l -8,-5 -5,-8 v -9 l 4,-6 8,-6 z"
         style="fill:#2e2024"
         id="path43" /><path
         d="m 506.87382,-23.369368 h 8 l 6,3 4,4 2,5 v 9.9999996 l -5,8 -6,3 h -9 l -6,-4 -5,-8 V -13.369368 l 7,-8 z"
         style="fill:#2f1b2b"
         id="path44" /><path
         d="m 563.87382,221.63063 h 2 l -1,7 -6,15 -7,11 -11,11 -13,8 -18,7 -12,3 h -21 l -17,-4 -2,6 -12,16 -10,10 -10,7 -16,8 -9,4 -10,2 -4,-1 6,-2 7,-1 v -3 l 4,1 7,-3 3,-1 9,-5 3,-3 5,-2 5,-6 6,-4 10,-13 3,-5 -2,-5 -2,-2 -5,2 -3,5 -8,7 -9,10 -4,3 h -2 l -1,3 -6,2 -12,7 -9,1 -2,1 -15,1 -6,-1 v -1 l 16,-1 17,-5 16,-8 10,-9 10,-10 11,-17 3,-8 5,2 -2,1 -1,4 -1,4 4,-1 2,1 v 3 h -2 l 1,3 -2,3 3,-1 2,-3 8,3 12,2 h 14 l 15,-3 6,-1 1,-2 11,-4 h 2 l 1,-2 5,-3 1,-2 7,-4 4,-4 3,-5 h 2 l 2,-5 5,-10 3,-10 z"
         style="fill:#6f81ea"
         id="path45" /><path
         d="m 233.87382,-23.369368 h 8 l 10,7 2,5 v 8.9999996 l -6,8 -6,3 h -9 l -6,-4 -4,-3.99999995 -1,-4.00000005 v -8.9999996 l 8,-9 z"
         style="fill:#221f2f"
         id="path46" /><path
         d="m 496.87382,208.63063 h 12 l 5,4 3,6 v 6 l -4,8 -5,4 h -12 l -5,-5 -2,-3 v -11 z"
         style="fill:#321d36"
         id="path47" /><path
         d="m 235.87382,207.63063 h 8 l 8,5 2,3 v 10 l -4,8 -5,3 -8,-1 -7,-6 -2,-5 v -7 l 3,-5 z"
         style="fill:#252237"
         id="path48" /><path
         d="m 310.87382,-64.369368 h 2 l 1,11 -1,6 1,5 h 3 v 2 h -2 l 1,5 h 2 v -2 l 3,-3 h 2 l 1,7 h 8 l -3,2 -11,4 -14,8 h -4 v -14 l 3,-13 z"
         style="fill:#8ef4d6"
         id="path49" /><path
         d="m 601.87382,131.63063 1,4 -1,4 -4,11 -3,6 -5,5 -2,4 -10,8 -8,6 -8,4 -12,5 2,6 v 22 l -2,10 -2,7 -4,7 -6,8 -4,4 -5,4 h -2 v 2 l -13,6 -9,3 -9,1 -1,-2 16,-4 14,-7 10,-8 7,-10 5,-10 2,-14 v -19 l -2,-8 11,-5 7,-3 11,-7 10,-9 7,-10 4,-7 z"
         style="fill:#dc8bcf"
         id="path50" /><path
         d="m 241.87382,-73.369368 h 27 l 10,2 7,3 5,1 v 2 l 8,1 -1,5 -5,10 -6,-3 -2,-2 -2,-7 h -1 l -1,-6 -18,-4 -16,1 -14,3 -13,5 -5,3 -11,8 -3,-1 10,-8 10,-6 z"
         style="fill:#67e1d2"
         id="path52" /><path
         d="m 279.87382,-53.369368 10,3 3,3 -1,2 -1,21 h -1 v -18 l -4,-1 h -18 l -1,3 -3,-1 -1,-2 -13,1 -2,1 -1,-5 4,-1 h 19 l 9,2 z"
         style="fill:#4feccd"
         id="path54" /><path
         d="m 141.87382,292.63063 h 8 l 4,4 v 6 l -3,5 -2,1 h -7 l -4,-4 v -7 z"
         style="fill:#22242d"
         id="path55" /><path
         d="m 549.87382,112.63063 h 6 l 5,4 v 8 l -4,4 h -8 l -4,-4 v -6 l 3,-5 z"
         style="fill:#f59ea4"
         id="path56" /><path
         d="m 304.87382,110.63063 h 62 v 49 h -40 v -1 h 39 l -1,-47 h -59 v 9 h 2 l 1,8 v 10 l -2,-4 -2,-10 z"
         style="fill:#359ebe"
         id="path57" /><path
         d="m 615.87382,135.63063 h 1 l -1,9 -11,21 -12,13 -11,8 -13,6 h -2 l 1,4 v 21 l -2,4 -1,-7 1,-5 v -12 l -2,-1 v -5 l 9,-2 v -2 l 6,-2 3,-3 7,-4 1,-2 5,-3 9,-11 3,-6 2,-1 1,-7 3,-8 h 2 z"
         style="fill:#e792cc"
         id="path58" /><path
         d="m 281.87382,-69.369368 9,2 v 2 l 8,1 -1,5 -5,10 -6,-3 -2,-2 -2,-12 z"
         style="fill:#c3e7a6"
         id="path59" /><path
         d="m 563.87382,221.63063 h 2 l -1,7 -6,15 -7,11 -11,11 -13,8 -18,7 h -8 l 3,-2 11,-2 1,-2 11,-4 h 2 l 1,-2 5,-3 1,-2 7,-4 4,-4 3,-5 h 2 l 2,-5 5,-10 3,-10 z"
         style="fill:#d692e9"
         id="path61" /><path
         d="m 290.87382,232.63063 h 1 l 1,25 -6,4 -2,-1 -2,-5 -5,-1 -10,2 h -23 l -7,-2 v -1 h 29 l 21,-2 2,-1 z"
         style="fill:#206299"
         id="path62" /><path
         d="m 369.87382,263.63063 h 6 l 4,4 v 7 l -5,4 h -5 l -3,-3 v -8 z"
         style="fill:#22e2f0"
         id="path63" /><path
         d="m 187.87382,114.63063 7,1 2,2 v 7 l -4,4 h -6 l -4,-4 v -5 z"
         style="fill:#42eef1"
         id="path64" /><path
         d="m 541.87382,34.630632 1,4 h -2 l -2,4 -7,2 -6,2 -1,4 v 2 l 6,1 4,3 -8,-1 -4,-2 -1,-2 v -10 h 2 v -2 h 16 z"
         style="fill:#662c2b"
         id="path65" /><path
         d="m 281.87382,108.63063 h 11 l 1,1 1,18 1,3 v 9 h -1 l -1,-8 -1,-1 -1,-11 v -9 h -47 l 1,13 -2,-4 v -10 z"
         style="fill:#1c5671"
         id="path66" /><path
         d="m 279.87382,-53.369368 10,3 3,3 -1,2 -1,21 h -1 v -18 l -9,-2 -2,-1 z"
         style="fill:#41a89c"
         id="path67" /><path
         d="m 370.87382,-74.369368 5,1 2,2 v 7 l -3,2 -5,-1 -2,-3 v -6 z"
         style="fill:#ecdf68"
         id="path68" /><path
         d="m 235.87382,-12.369368 5,1 2,1.9999996 v 6 l -2,1 h -7 l -1,-1 v -6 z"
         style="fill:#8eedf0"
         id="path69" /><path
         d="m 452.87382,110.63063 h 48 l 2,4 -2,9 -2,7 -1,-4 2,-15 h -47 z"
         style="fill:#53315a"
         id="path71" /><path
         d="m 403.87382,-72.369368 h 3 l 1,2 5,2 1,1 v 7 l -8,-1 -1,-2 v -6 z"
         style="fill:#efbf36"
         id="path72" /><path
         d="m 508.87382,-11.369368 5,1 2,1.9999996 v 5 l -2,2 h -5 l -2,-2 v -6 z"
         style="fill:#e8b120"
         id="path73" /><path
         d="m 342.87382,311.63063 h 9 l 2,1 v 2 h 12 l 3,1 16,1 v 1 h -24 l -18,-5 z"
         style="fill:#203b72"
         id="path74" /><path
         d="m 237.87382,253.63063 h 36 l -4,2 -2,1 h -23 l -7,-2 z"
         style="fill:#1d8dcd"
         id="path75" /><path
         d="m 316.87382,218.63063 h 4 v 2 l 10,2 4,2 6,1 -1,-4 4,3 v 2 h 2 v 2 l -10,-1 -16,-6 z"
         style="fill:#2697c7"
         id="path76" /><path
         d="m 397.87382,257.63063 h 5 l 1,5 -2,3 -5,-1 -1,-4 z"
         style="fill:#192359"
         id="path77" /><path
         d="m 236.87382,219.63063 7,1 v 6 l -5,1 -2,-2 z"
         style="fill:#4bd1eb"
         id="path78" /><path
         d="m 498.87382,219.63063 h 6 l 1,1 v 5 l -1,1 h -5 l -1,-1 z"
         style="fill:#d7b89e"
         id="path79" /><path
         d="m 151.87382,295.63063 2,1 v 6 l -3,5 -2,1 h -7 l -3,-3 h 9 l 4,-2 z"
         style="fill:#13545e"
         id="path80" /><path
         d="m 290.87382,257.63063 h 2 l 7,14 -1,2 -3,-3 -4,-8 -4,-2 z m -3,4 z"
         style="fill:#16aadb"
         id="path81" /><path
         d="m 494.87382,280.63063 h 11 l -2,2 -6,1 h -21 v -1 l 16,-1 z"
         style="fill:#9572b4"
         id="path82" /><path
         d="m 247.87382,172.63063 3,3 3,6 h -2 v -2 h -4 v 7 l -1,4 -3,-1 2,-5 v -4 l -4,-2 h 7 z"
         style="fill:#279cbe"
         id="path83" /><path
         d="m 330.87382,264.63063 h 6 l 1,5 -1,1 h -6 z"
         style="fill:#060f21"
         id="path84" /><path
         d="m 294.87382,223.63063 9,4 -4,1 -1,4 v -2 h -6 z"
         style="fill:#233a67"
         id="path86" /><path
         d="m 413.87382,257.63063 3,1 -1,7 h -4 v -6 z"
         style="fill:#12135b"
         id="path88" /><path
         d="m 406.87382,-67.369368 h 5 l 1,1 v 5 l -6,-1 z"
         style="fill:#533819"
         id="path89" /><path
         d="m 437.87382,120.63063 h 1 v 8 l -3,15 -2,-4 1,-6 h 2 z"
         style="fill:#a372a7"
         id="path90" /><path
         d="m 307.87382,60.630632 h 1 v 9 l -2,7 -1,6 h -1 v -8 z"
         style="fill:#37a2a3"
         id="path91" /><path
         d="m 314.87382,42.630632 1,4 -3,10 -4,3 3,-10 z"
         style="fill:#4acbcb"
         id="path92" /><path
         d="m 523.87382,39.630632 h 15 v 1 l -13,2 -4,1 v -2 h 2 z"
         style="fill:#af5223"
         id="path93" /><path
         d="m 289.87382,218.63063 5,4 v 5 l -3,3 v -5 z"
         style="fill:#1f95cb"
         id="path94" /><path
         d="m 141.87382,292.63063 h 8 v 1 l -7,1 -3,5 -1,5 h -1 v -7 z"
         style="fill:#0e435b"
         id="path95" /><path
         d="m 562.87382,96.630632 2,1 3,4.999998 2,3 -4,-1 -5,-4 z m 0,2 z"
         style="fill:#ef9099"
         id="path96" /><path
         d="m 541.87382,136.63063 6,1 v 2 l 10,1 v 1 h -9 l -7,-3 z"
         style="fill:#652d5d"
         id="path97" /><path
         d="m 263.87382,31.630632 10,1 v 1 h -9 l -2,7 -2,-1 2,-7 z"
         style="fill:#59cec7"
         id="path98" /><path
         d="m 298.87382,47.630632 1,4 -4,12 h -1 v -8 l 1,-2 h 2 z"
         style="fill:#49bac6"
         id="path99" /><path
         d="m 450.87382,221.63063 3,4 -4,4 v -5 l -2,-1 z"
         style="fill:#543e88"
         id="path100" /><path
         d="m 232.87382,69.630632 h 1 v 9 h -2 l -1,2 1,-7 z"
         style="fill:#1e5365"
         id="path101" /><text
         xml:space="preserve"
         transform="translate(0.94124161,-452.05913)"
         id="text1"
         style="letter-spacing:20px;white-space:pre;shape-inside:url(#rect1);display:inline;fill:#000000"><tspan
           x="190.3457"
           y="908.862"
           id="tspan3"><tspan
             style="font-weight:bold;font-size:133.333px;font-family:Arial;-inkscape-font-specification:'Arial, Bold';fill:#ececec"
             id="tspan2">LEIA</tspan></tspan></text></g></g></svg>
